<svg width="96" height="36" viewBox="0 0 96 36" fill="none" xmlns="http://www.w3.org/2000/svg">
<path d="M3.56068 10.3527L8.90168 13.9133L14.2249 6.46138C14.3425 6.29653 14.4978 6.16216 14.6779 6.06945C14.8579 5.97674 15.0575 5.92838 15.26 5.92838C15.4625 5.92838 15.6621 5.97674 15.8422 6.06945C16.0222 6.16216 16.1775 6.29653 16.2951 6.46138L21.6183 13.9133L26.9593 10.3527C27.1615 10.2182 27.3979 10.1444 27.6406 10.14C27.8834 10.1356 28.1223 10.2007 28.3292 10.3278C28.5361 10.4548 28.7023 10.6384 28.8082 10.8569C28.914 11.0754 28.9551 11.3197 28.9266 11.5608L26.8373 29.3221C26.8008 29.6315 26.6521 29.9167 26.4194 30.1236C26.1866 30.3306 25.886 30.445 25.5745 30.445H4.94552C4.63405 30.445 4.33342 30.3306 4.10066 30.1236C3.8679 29.9167 3.7192 29.6315 3.68276 29.3221L1.59341 11.5595C1.56518 11.3185 1.60649 11.0744 1.71246 10.8562C1.81844 10.6379 1.98465 10.4545 2.19149 10.3276C2.39832 10.2007 2.63714 10.1356 2.87975 10.1401C3.12236 10.1445 3.35863 10.2183 3.56068 10.3527V10.3527ZM15.26 22.815C15.9345 22.815 16.5815 22.5471 17.0584 22.0701C17.5354 21.5931 17.8033 20.9462 17.8033 20.2717C17.8033 19.5971 17.5354 18.9502 17.0584 18.4733C16.5815 17.9963 15.9345 17.7283 15.26 17.7283C14.5855 17.7283 13.9386 17.9963 13.4616 18.4733C12.9846 18.9502 12.7167 19.5971 12.7167 20.2717C12.7167 20.9462 12.9846 21.5931 13.4616 22.0701C13.9386 22.5471 14.5855 22.815 15.26 22.815Z" fill="#B3040D"/>
<line x1="34.65" y1="1.23909" x2="95.65" y2="1.23909" stroke="white" stroke-width="1.52182"/>
<path d="M42.746 19.208C43.4073 19.3573 43.93 19.688 44.314 20.2C44.7087 20.7013 44.906 21.2773 44.906 21.928C44.906 22.888 44.5753 23.64 43.914 24.184C43.2527 24.728 42.3247 25 41.13 25H35.546V13.72H40.954C42.106 13.72 43.0073 13.976 43.658 14.488C44.3193 15 44.65 15.72 44.65 16.648C44.65 17.3093 44.474 17.864 44.122 18.312C43.7807 18.7493 43.322 19.048 42.746 19.208ZM38.682 18.2H40.266C41.0553 18.2 41.45 17.8747 41.45 17.224C41.45 16.552 41.0553 16.216 40.266 16.216H38.682V18.2ZM40.506 22.472C41.2953 22.472 41.69 22.1413 41.69 21.48C41.69 21.1387 41.5833 20.8773 41.37 20.696C41.1673 20.5147 40.874 20.424 40.49 20.424H38.682V22.472H40.506ZM51.4164 16.232V18.072H55.0164V20.456H51.4164V22.488H55.4964V25H48.2804V13.72H55.4964V16.232H51.4164ZM67.958 17.48C67.958 18.1627 67.798 18.7867 67.478 19.352C67.1687 19.9067 66.694 20.3547 66.054 20.696C65.4247 21.0267 64.6513 21.192 63.734 21.192H62.182V25H59.046V13.72H63.734C64.6407 13.72 65.4087 13.88 66.038 14.2C66.678 14.52 67.158 14.9627 67.478 15.528C67.798 16.0933 67.958 16.744 67.958 17.48ZM63.43 18.696C64.3153 18.696 64.758 18.2907 64.758 17.48C64.758 16.6587 64.3153 16.248 63.43 16.248H62.182V18.696H63.43ZM76.9299 25L74.6899 20.84H74.3539V25H71.2179V13.72H76.1619C77.0685 13.72 77.8365 13.88 78.4659 14.2C79.0952 14.5093 79.5699 14.9413 79.8899 15.496C80.2099 16.04 80.3699 16.6533 80.3699 17.336C80.3699 18.104 80.1565 18.7813 79.7299 19.368C79.3139 19.944 78.7005 20.3547 77.8899 20.6L80.4339 25H76.9299ZM74.3539 18.696H75.9059C76.3325 18.696 76.6525 18.5947 76.8659 18.392C77.0792 18.1893 77.1859 17.896 77.1859 17.512C77.1859 17.1493 77.0739 16.8667 76.8499 16.664C76.6365 16.4507 76.3219 16.344 75.9059 16.344H74.3539V18.696ZM89.204 25.112C88.148 25.112 87.1773 24.8667 86.292 24.376C85.4067 23.8747 84.7027 23.1867 84.18 22.312C83.668 21.4267 83.412 20.4293 83.412 19.32C83.412 18.2107 83.668 17.2187 84.18 16.344C84.7027 15.4587 85.4067 14.7707 86.292 14.28C87.1773 13.7893 88.148 13.544 89.204 13.544C90.2707 13.544 91.2413 13.7893 92.116 14.28C93.0013 14.7707 93.7 15.4587 94.212 16.344C94.724 17.2187 94.98 18.2107 94.98 19.32C94.98 20.4293 94.724 21.4267 94.212 22.312C93.7 23.1867 93.0013 23.8747 92.116 24.376C91.2307 24.8667 90.26 25.112 89.204 25.112ZM89.204 22.2C90.004 22.2 90.6333 21.9387 91.092 21.416C91.5613 20.8933 91.796 20.1947 91.796 19.32C91.796 18.424 91.5613 17.72 91.092 17.208C90.6333 16.6853 90.004 16.424 89.204 16.424C88.3933 16.424 87.7587 16.6853 87.3 17.208C86.8413 17.72 86.612 18.424 86.612 19.32C86.612 20.2053 86.8413 20.9093 87.3 21.432C87.7587 21.944 88.3933 22.2 89.204 22.2Z" fill="white"/>
<line x1="34.65" y1="35.2391" x2="95.65" y2="35.2391" stroke="white" stroke-width="1.52182"/>
</svg>
