<svg width="104" height="25" viewBox="0 0 104 25" fill="none" xmlns="http://www.w3.org/2000/svg">
<path d="M2.80001 6.20001L7.00001 9.00001L11.186 3.14001C11.2785 3.01038 11.4006 2.90471 11.5422 2.83181C11.6838 2.75891 11.8408 2.72087 12 2.72087C12.1593 2.72087 12.3162 2.75891 12.4578 2.83181C12.5994 2.90471 12.7215 3.01038 12.814 3.14001L17 9.00001L21.2 6.20001C21.359 6.09425 21.5449 6.03621 21.7358 6.03274C21.9266 6.02927 22.1145 6.08052 22.2772 6.18043C22.4399 6.28033 22.5706 6.42473 22.6539 6.59654C22.7371 6.76835 22.7694 6.96041 22.747 7.15001L21.104 21.117C21.0754 21.3603 20.9584 21.5845 20.7754 21.7473C20.5923 21.91 20.3559 22 20.111 22H3.88901C3.64407 22 3.40767 21.91 3.22464 21.7473C3.0416 21.5845 2.92466 21.3603 2.89601 21.117L1.25301 7.14901C1.23081 6.95949 1.26329 6.76758 1.34663 6.59592C1.42996 6.42427 1.56067 6.28004 1.72332 6.18027C1.88597 6.08049 2.07377 6.02933 2.26455 6.03283C2.45533 6.03633 2.64113 6.09434 2.80001 6.20001V6.20001ZM12 16C12.5304 16 13.0391 15.7893 13.4142 15.4142C13.7893 15.0391 14 14.5304 14 14C14 13.4696 13.7893 12.9609 13.4142 12.5858C13.0391 12.2107 12.5304 12 12 12C11.4696 12 10.9609 12.2107 10.5858 12.5858C10.2107 12.9609 10 13.4696 10 14C10 14.5304 10.2107 15.0391 10.5858 15.4142C10.9609 15.7893 11.4696 16 12 16Z" fill="#151515"/>
<line x1="28" y1="1" x2="104" y2="1" stroke="#151515" stroke-width="2"/>
<path d="M38.944 12.43C39.664 12.682 40.228 13.078 40.636 13.618C41.044 14.146 41.248 14.788 41.248 15.544C41.248 16.648 40.804 17.5 39.916 18.1C39.028 18.7 37.744 19 36.064 19H29.26V6.4H35.704C37.312 6.4 38.536 6.7 39.376 7.3C40.216 7.888 40.636 8.686 40.636 9.694C40.636 10.294 40.486 10.834 40.186 11.314C39.898 11.782 39.484 12.154 38.944 12.43ZM32.788 8.974V11.404H35.236C36.436 11.404 37.036 10.996 37.036 10.18C37.036 9.376 36.436 8.974 35.236 8.974H32.788ZM35.776 16.426C37.024 16.426 37.648 16 37.648 15.148C37.648 14.296 37.024 13.87 35.776 13.87H32.788V16.426H35.776ZM55.21 16.246V19H45.094V6.4H54.976V9.154H48.622V11.278H54.22V13.942H48.622V16.246H55.21ZM64.9477 6.4C66.0877 6.4 67.0777 6.592 67.9177 6.976C68.7577 7.348 69.4057 7.888 69.8617 8.596C70.3177 9.292 70.5457 10.114 70.5457 11.062C70.5457 12.01 70.3177 12.832 69.8617 13.528C69.4057 14.224 68.7577 14.764 67.9177 15.148C67.0777 15.52 66.0877 15.706 64.9477 15.706H62.7517V19H59.1877V6.4H64.9477ZM64.7317 12.898C65.4637 12.898 66.0157 12.742 66.3877 12.43C66.7597 12.106 66.9457 11.65 66.9457 11.062C66.9457 10.474 66.7597 10.018 66.3877 9.694C66.0157 9.37 65.4637 9.208 64.7317 9.208H62.7517V12.898H64.7317ZM79.7914 15.652H77.8474V19H74.2834V6.4H80.0434C81.1834 6.4 82.1734 6.592 83.0134 6.976C83.8534 7.348 84.5014 7.888 84.9574 8.596C85.4134 9.292 85.6414 10.114 85.6414 11.062C85.6414 11.974 85.4254 12.772 84.9934 13.456C84.5734 14.128 83.9674 14.656 83.1754 15.04L85.8934 19H82.0774L79.7914 15.652ZM82.0414 11.062C82.0414 10.474 81.8554 10.018 81.4834 9.694C81.1114 9.37 80.5594 9.208 79.8274 9.208H77.8474V12.898H79.8274C80.5594 12.898 81.1114 12.742 81.4834 12.43C81.8554 12.106 82.0414 11.65 82.0414 11.062ZM95.9617 19.252C94.6297 19.252 93.4297 18.97 92.3617 18.406C91.3057 17.842 90.4717 17.062 89.8597 16.066C89.2597 15.07 88.9597 13.948 88.9597 12.7C88.9597 11.452 89.2597 10.33 89.8597 9.334C90.4717 8.338 91.3057 7.558 92.3617 6.994C93.4297 6.43 94.6297 6.148 95.9617 6.148C97.2937 6.148 98.4877 6.43 99.5437 6.994C100.612 7.558 101.446 8.338 102.046 9.334C102.658 10.33 102.964 11.452 102.964 12.7C102.964 13.948 102.658 15.07 102.046 16.066C101.446 17.062 100.612 17.842 99.5437 18.406C98.4877 18.97 97.2937 19.252 95.9617 19.252ZM95.9617 16.3C96.5977 16.3 97.1737 16.15 97.6897 15.85C98.2057 15.55 98.6137 15.13 98.9137 14.59C99.2137 14.038 99.3637 13.408 99.3637 12.7C99.3637 11.992 99.2137 11.368 98.9137 10.828C98.6137 10.276 98.2057 9.85 97.6897 9.55C97.1737 9.25 96.5977 9.1 95.9617 9.1C95.3257 9.1 94.7497 9.25 94.2337 9.55C93.7177 9.85 93.3097 10.276 93.0097 10.828C92.7097 11.368 92.5597 11.992 92.5597 12.7C92.5597 13.408 92.7097 14.038 93.0097 14.59C93.3097 15.13 93.7177 15.55 94.2337 15.85C94.7497 16.15 95.3257 16.3 95.9617 16.3Z" fill="#151515"/>
<line x1="28" y1="23" x2="104" y2="23" stroke="#151515" stroke-width="2"/>
</svg>
